<?xml version="1.0" encoding="UTF-8"?>
<svg id="Calque_1" data-name="Calque 1" xmlns="http://www.w3.org/2000/svg" viewBox="0 0 716.25 830.41">
  <defs>
    <style>
      .cls-1 {
        fill: #f6b058;
      }

      .cls-2 {
        fill: #492109;
      }

      .cls-3 {
        fill: #b66533;
        isolation: isolate;
        opacity: .34;
      }

      .cls-4 {
        fill: #6d3a1f;
      }
    </style>
  </defs>
  <path class="cls-1" d="m5.48,24.4S127.84,98.09,363.66,0c220.52,100.4,352.59,32.5,352.59,32.5,0,0-8.04,463.62-7.65,463.62-45.49,140.23-148.06,262.05-349.84,334.29C141.67,757.4,41.76,613.69.09,467.48c-.88.87,5.39-443.08,5.39-443.08Z"/>
  <path class="cls-2" d="m362.78,47.26c79.71,33.95,157.17,51.12,230.71,51.12,30.49,0,56.38-2.99,77.56-7.04-.78,44.66-1.86,108.7-2.94,172.26-1.18,67.32-2.06,120.95-2.65,159.43-.39,22.86-.59,40.61-.79,52.56-.1,5.6-.1,10.22-.2,13.5-10.39,30.77-23.73,59.7-39.51,86.32-17.85,30-39.51,57.96-64.32,82.94-26.48,26.62-57.36,50.93-91.97,72.14-32.95,20.25-70.01,38.19-110.41,53.63-42.94-15.53-82.36-34.72-117.17-57.1-35.59-22.86-67.36-49.57-94.52-79.57-46.57-51.41-81.09-114.19-102.46-186.34,0-33.66,2.45-222.22,4.61-375.86,23.14,5.11,52.26,9.07,87.17,9.07,70.5,0,146.78-15.82,226.89-47.07Zm.78-47.26c-94.23,39.16-170.31,50.92-227.67,50.92C49.6,50.92,5.48,24.3,5.48,24.3,5.48,24.3-.7,467.39.09,467.39c41.67,146.31,141.58,290.02,358.67,363.03,201.79-72.24,304.35-194.05,349.85-334.29-.39-.1,7.65-463.62,7.65-463.62,0,0-43.73,22.47-122.76,22.47-58.44,0-136.19-12.35-229.93-54.97Z"/>
  <path class="cls-4" d="m205.4,202.54c-20.1,1.45-4.22,46.78,2.84,48.13,6.96,1.35,29.42-15.14,32.16-28.93,2.75-13.7-15.49-20.64-35-19.19Z"/>
  <path class="cls-2" d="m208.83,256.45c-.59,0-1.27-.1-1.76-.19-4.61-.87-8.92-6.46-12.75-16.59-1.57-4.15-5.2-15.05-4.51-25.08.98-15.24,10.98-17.55,15.2-17.84,15.98-1.16,30.1,2.89,36.87,10.42,3.92,4.44,5.39,9.84,4.22,15.72-3.14,15.43-25.59,33.56-37.26,33.56Zm-3.04-48.22c-1.37.1-2.75.39-3.63,3.28-3.04,9.36,3.92,28.84,7.75,33.37,5.79-1.35,22.65-13.98,24.71-24.21.49-2.31,0-4.15-1.57-5.88-4.22-4.73-15.2-7.43-27.26-6.56Z"/>
  <path class="cls-4" d="m427.49,183.44c-20.69-20.25-55.99,39.93-50.89,48.71,5.1,8.87,44.71,17.26,62.65,7.14,17.94-10.13,8.33-36.07-11.77-55.84Z"/>
  <path class="cls-2" d="m417,249.7c-6.08,0-11.47-.68-14.81-1.16-5.88-.87-25.49-4.53-30.69-13.5-3.63-6.27,1.47-18.13,6.38-26.91,3.04-5.5,11.47-19.29,22.94-27.87,11.37-8.58,22.65-8.87,30.79-.87,15.88,15.62,24.61,33.76,22.75,47.36-1.08,7.62-5.29,13.7-12.16,17.65-7.45,4.15-16.96,5.3-25.2,5.3Zm-35.01-20.06c4.61,5.3,39.12,13.31,54.42,4.73,3.73-2.12,5.79-5.11,6.37-9.16,1.37-9.84-6.47-24.98-19.41-37.71-2.16-2.12-5.1-3.86-10.98-.96-14.9,7.43-30.69,36.26-30.4,43.11Z"/>
  <path class="cls-4" d="m310.32,316.44c-15.69,1.06-3.24,36.46,2.16,37.52,5.49,1.06,22.85-11.77,25.1-22.47s-12.06-16.11-27.26-15.05Z"/>
  <path class="cls-2" d="m313.06,359.75c-.59,0-1.18-.1-1.76-.19-9.02-1.74-15.1-23.44-14.51-33.85.59-8.87,5.39-14.56,13.04-15.04,13.04-.96,24.22,2.31,29.81,8.49,3.33,3.76,4.61,8.39,3.63,13.31-1.77,8.58-9.9,16.11-13.24,18.9-3.14,2.7-10.69,8.39-16.96,8.39Zm-2.35-37.62c-.69.1-1.18.1-1.67,1.45-2.25,6.36,2.35,19.96,5.29,24.3,4.8-1.83,16.08-10.71,17.45-17.65.3-1.45,0-2.41-.88-3.47-2.45-2.7-9.9-5.31-20.2-4.63Z"/>
  <path class="cls-4" d="m541.03,364.19c-16.47-14.08-39.61,32.7-35.3,38.97,4.32,6.36,34.22,10.51,47.07,2.12,12.84-8.39,4.31-27.39-11.77-41.09Z"/>
  <path class="cls-2" d="m531.81,415.69c-2.55,0-4.71-.1-6.28-.29-4.61-.38-20-2.12-24.71-9.16-2.74-4.05-1.67-11.38,3.24-21.8,2.06-4.34,7.65-15.33,15.98-22.47,12.26-10.61,21.47-5.11,24.81-2.22,13.04,11.09,20.69,24.59,20,35.3-.39,6.27-3.43,11.38-8.83,14.85-7.06,4.82-17.06,5.79-24.22,5.79Zm-20.79-15.43c5.1,3.57,28.53,6.75,38.54.2,2.25-1.54,3.43-3.38,3.63-6.08.49-6.94-5.98-17.36-15.98-25.94-1.57-1.35-3.04-1.83-5.98-.29-9.9,5.3-19.9,26.04-20.2,32.12Z"/>
  <path class="cls-4" d="m145.49,374.02c-22.26,1.54-4.61,51.7,3.14,53.24,7.75,1.54,32.45-16.68,35.59-31.92,3.04-15.24-17.06-22.86-38.73-21.31Z"/>
  <path class="cls-2" d="m149.51,433.15c-.69,0-1.37-.1-2.06-.2-10.49-2.02-19.51-30.67-18.53-45.52,1.08-16.3,11.67-18.81,16.18-19.1,17.45-1.25,32.95,3.09,40.3,11.29,4.22,4.73,5.79,10.61,4.51,16.88-2.35,11.48-13.33,21.6-18.04,25.56-3.33,2.7-14.02,11.09-22.36,11.09Zm-3.63-53.34c-2.06.19-3.63.87-4.61,4.15-3.33,11,4.71,33.08,9.02,37.61,6.18-1.06,25.79-15.72,28.14-27.39.59-2.8,0-5.02-1.86-7.04-4.8-5.3-17.16-8.29-30.69-7.33Z"/>
  <path class="cls-4" d="m246.98,518.02c-10.2-19.48-50.1,16.11-48.44,23.73,1.67,7.62,28.34,22.76,43.83,19.58,15.49-3.19,14.51-24.4,4.61-43.31Z"/>
  <path class="cls-2" d="m237.76,567.4c-10.1,0-20.59-4.53-25.1-6.75-4.22-2.03-18.04-9.45-19.81-17.75-2.26-10.32,20.98-29.71,35.1-34.62,15.69-5.5,22.16,3.18,24.22,7.14,8.04,15.33,10.1,30.96,5.29,40.8-2.75,5.69-7.55,9.45-13.92,10.71-1.96.38-3.82.48-5.79.48Zm-33.24-26.43c3.43,5.21,24.81,17.07,36.57,14.66,2.75-.58,4.61-2.02,5.79-4.44,3.14-6.46,1.08-18.71-5.1-30.57-.98-1.83-2.26-2.9-5.69-2.61-11.57,1.35-29.02,17.36-31.57,22.96Z"/>
  <path class="cls-4" d="m437.59,490.72c35.4-15.14-22.84-87-36.28-85.06-13.53,1.93-43.14,45.71-39.22,72.34,3.92,26.52,41.08,27.49,75.5,12.73Z"/>
  <path class="cls-2" d="m396.01,506.06c-9.51,0-17.94-1.74-24.51-5.4-8.53-4.63-13.73-12.25-15.2-21.89-2.75-18.71,8.72-40.61,13.82-49.09,7.94-13.41,20.1-28.26,30.4-29.71,14.7-2.12,45.1,35.78,52.26,60.57,6.67,23.15-5.1,32.12-12.75,35.4-15.49,6.75-30.89,10.13-44.03,10.13Zm5.88-94.61c-3.63.87-13.04,9.45-21.67,24.11-9.32,15.62-13.92,31.25-12.35,41.67.88,6.07,3.92,10.51,9.31,13.5,12.36,6.75,35.1,4.73,58.15-5.11,3.92-1.74,9.02-5.21,7.45-16.2-1.47-10.22-8.63-24.3-19.02-37.71-10.59-13.5-19.22-19.77-21.87-20.25Z"/>
  <path class="cls-4" d="m367.67,612.54c-15.69,1.06-3.24,36.46,2.16,37.52,5.39,1.06,22.85-11.77,25.1-22.47,2.16-10.71-12.06-16.11-27.26-15.04Z"/>
  <path class="cls-2" d="m370.42,655.94c-.59,0-1.18-.1-1.76-.19-9.02-1.74-15.1-23.44-14.51-33.85.59-8.87,5.39-14.56,13.04-15.04,13.04-.96,24.22,2.32,29.81,8.49,3.33,3.76,4.61,8.39,3.63,13.31-1.77,8.58-9.9,16.11-13.24,18.9-3.14,2.7-10.69,8.39-16.96,8.39Zm1.08-37.71c-1.08,0-2.25,0-3.43.1-.69.09-1.18.09-1.67,1.45-2.26,6.36,2.35,19.96,5.29,24.3,4.8-1.83,16.08-10.71,17.45-17.65.3-1.45,0-2.41-.88-3.47-2.25-2.41-8.23-4.73-16.77-4.73Z"/>
  <path class="cls-4" d="m530.05,522.84c-15.1-6.65-21.38,32.31-16.86,35.98,4.51,3.66,27.26.19,34.71-8.68,7.45-8.97-3.04-20.83-17.84-27.29Z"/>
  <path class="cls-2" d="m520.05,565.95c-3.92,0-7.94-.67-10.59-2.7-7.35-5.98-2.16-28.94,3.63-38.1,4.9-7.91,12.16-10.7,19.32-7.52,12.55,5.5,21.18,13.79,23.24,22.28,1.18,5.02.1,9.84-3.33,13.89-5.88,7.04-17.16,10.13-21.67,11.09-2.35.39-6.47,1.06-10.59,1.06Zm-2.35-11.57c5.2.77,20.69-2.03,25.69-8.01,1.08-1.25,1.37-2.41.98-3.95-1.18-4.73-7.94-10.61-16.57-14.37-.78-.39-1.37-.48-2.65.58-5.39,4.92-8.14,20.45-7.45,25.75Z"/>
  <path class="cls-4" d="m559.27,252.6c-16.47,1.25-3.43,41.76,2.25,43.01,5.69,1.25,24.02-13.5,26.28-25.85,2.45-12.25-12.45-18.42-28.53-17.17Z"/>
  <path class="cls-2" d="m562.31,301.4c-.69,0-1.37-.1-1.96-.19-1.76-.39-6.37-1.35-11.18-15.53-1.28-3.76-4.31-13.6-3.63-22.67.98-13.7,9.61-15.91,13.33-16.11,13.14-.96,24.51,2.31,30.59,8.87,3.83,4.15,5.29,9.45,4.22,15.05-1.86,10.22-11.96,20.83-20.39,26.43-4.32,2.8-7.84,4.15-10.98,4.15Zm.98-43.21c-1.18,0-2.35,0-3.53.1-.69.1-1.27.1-1.86,1.83-2.74,7.52,2.35,24.31,5.69,29.42,5.1-2.12,17.16-12.54,18.63-20.83.39-2.12,0-3.76-1.47-5.3-3.04-3.28-9.81-5.21-17.45-5.21Z"/>
  <path class="cls-3" d="m357.34,783.15c-190.61-63.08-278.37-187.3-314.94-313.65-.78.67,4.31-382.7,4.71-382.9,30.92,448.42,49.03,469.32,310.23,696.54Z"/>
</svg>