<?xml version="1.0" encoding="UTF-8"?>
<svg id="Calque_1" data-name="Calque 1" xmlns="http://www.w3.org/2000/svg" viewBox="0 0 876.43 852.8">
  <defs>
    <style>
      .cls-1 {
        fill: #492109;
      }

      .cls-2 {
        fill: #eb8f56;
      }

      .cls-3 {
        fill: #b66533;
      }
    </style>
  </defs>
  <path class="cls-1" d="m540.31,786.25c-2.43,0-4.99-.26-7.55-.77l-495.41-110.29c-17.41-3.85-29.05-20.39-26.75-38.08l24.7-195.95c.51-4.1,1.79-8.08,3.71-11.8L255.42,18.47c7.17-13.47,22.27-20.77,37.11-17.83l370.12,72.33c1.79.38,3.58.9,5.37,1.54l153.71,57.07c8.96,3.33,16.25,10.26,19.96,19.24,3.71,8.85,3.46,18.98-.51,27.7l-269.4,587.6c-5.76,12.44-18.17,20.13-31.48,20.13Zm-457.15-171.84l437.44,97.34,242.27-528.35-116.08-43.09-342.22-66.81L103.13,456.03l-19.97,158.37Z"/>
  <path class="cls-1" d="m570.64,852.8c-13.44,0-25.6-7.82-31.36-20.01l-26.62-57.06c-4.22-9.1-4.35-19.62-.26-28.85L780.02,149.66c4.74-10.52,14.46-18.08,25.85-20.01,11.39-1.92,23.04,2.05,30.85,10.39l30.33,32.32c9.47,10.13,12.03,24.88,6.53,37.57l-271.19,622.09c-5.51,12.44-17.66,20.65-31.23,20.77h-.51Z"/>
  <path class="cls-1" d="m569.74,851.9c-2.69,0-5.5-.39-8.19-1.03L33.89,721.49c-13.31-3.21-23.42-14.11-25.85-27.7l-7.55-43.73c-1.92-11.41,1.92-23.08,10.24-31.03,8.32-7.95,20.22-11.16,31.48-8.59l508.59,116.06c10.37,2.31,19.07,9.49,23.68,19.11l26.62,57.07c5.63,12.05,3.84,26.29-4.61,36.55-6.66,8.08-16.51,12.7-26.75,12.7Z"/>
  <path class="cls-2" d="m287.93,34.63l370.12,72.33-218.33,418.32-368.2-79.89L287.93,34.63Z"/>
  <path class="cls-3" d="m542.23,751.62l-102.51-226.34,218.33-418.32,153.7,56.94-269.53,587.72Z"/>
  <path class="cls-1" d="m46.81,641.34l24.7-195.95,368.2,79.89,102.51,226.34-495.41-110.29Z"/>
  <path class="cls-1" d="m251.84,439.74c-3.46,20.65,123.37,58.99,155.62,49.5,32.25-9.49,89.2-116.06,79.73-129.27-9.47-13.34-38.01,64.63-83.57,74.12-45.43,9.36-147.95-17.19-151.78,5.64Z"/>
  <path class="cls-3" d="m813.67,163.9l30.33,32.44-271.45,621.84-26.49-57.07L813.67,163.9Z"/>
  <path class="cls-1" d="m572.56,828.44c-3.97,0-7.55-2.31-9.21-5.9l-26.62-57.06c-1.28-2.69-1.28-5.77,0-8.59L804.33,159.67c1.41-3.08,4.22-5.39,7.68-5.9,3.33-.51,6.78.64,9.21,3.08l30.33,32.32c2.82,2.95,3.58,7.44,1.92,11.16l-271.45,621.96c-1.66,3.72-5.25,6.15-9.47,6.15q.13,0,0,0Zm-15.23-67.45l14.97,32.19L831.98,198.27l-15.23-16.16-259.42,578.88Z"/>
  <path class="cls-1" d="m44,687.89l527.66,129.39-26.62-57.07-508.59-116.06,7.55,43.73Z"/>
  <path class="cls-1" d="m571.66,824.33c-.51,0-1.15-.13-1.66-.26L42.34,694.81c-2.69-.64-4.74-2.82-5.25-5.64l-7.55-43.73c-.38-2.31.38-4.74,2.05-6.28,1.66-1.67,4.1-2.31,6.4-1.8l508.6,116.06c2.17.51,3.84,1.92,4.86,3.85l26.62,57.07c1.15,2.44.77,5.39-.9,7.44-1.41,1.54-3.45,2.57-5.5,2.57ZM50.14,682.11l508.85,124.78-18.94-40.65-495.03-112.85,5.12,28.72Z"/>
</svg>