<?xml version="1.0" encoding="UTF-8"?>
<svg id="Calque_1" data-name="Calque 1" xmlns="http://www.w3.org/2000/svg" viewBox="0 0 806 791">
  <defs>
    <style>
      .cls-1 {
        fill: #df7a4c;
        opacity: .34;
      }

      .cls-2, .cls-3 {
        fill: #2b170c;
      }

      .cls-4 {
        fill: gold;
      }

      .cls-5 {
        fill: #6d3a1f;
      }

      .cls-6 {
        fill: #f7d50b;
      }

      .cls-3 {
        opacity: .96;
      }
    </style>
  </defs>
  <g id="Golden">
    <g>
      <path class="cls-2" d="m329,766c-81.2,0-157.54-31.62-214.96-89.04-57.42-57.42-89.04-133.76-89.04-214.96,0-61.41,18.22-120.57,52.7-171.1,33.19-48.64,79.23-86.32,133.26-109.1C264.61,85.01,366.31,25,477,25c3.91,0,8.05.09,12.67.28l8.93.37-2.49,8.58c-2.06,7.09-3.1,14.42-3.1,21.77,0,43.01,34.99,78,78,78,14.47,0,28.61-4.01,40.88-11.58l12.25-7.56-1.61,14.3c-.34,3.02-.51,6-.51,8.84,0,29.75,17.33,57.34,44.14,70.29l3.29,1.59.58,3.61c6.1,37.97,38.48,65.52,76.99,65.52,7.24,0,14.47-1.02,21.47-3.02l7.61-2.18,1.23,7.82c2.45,15.62,3.69,31.56,3.69,47.37,0,61.41-18.22,120.57-52.7,171.1-33.19,48.64-79.23,86.32-133.26,109.1-53.65,96.78-155.35,156.79-266.04,156.79ZM477,39c-106.38,0-204.06,58.11-254.94,151.65l-1.19,2.18-2.3.95C109.49,238.74,39,344.02,39,462c0,159.91,130.09,290,290,290,106.38,0,204.06-58.11,254.94-151.65l1.19-2.18,2.3-.95c109.09-44.96,179.58-150.24,179.58-268.22,0-12.56-.82-25.21-2.44-37.7-5.79,1.13-11.67,1.7-17.56,1.7-22,0-43.29-7.89-59.95-22.22-15.56-13.38-26.2-31.57-30.23-51.52-13.96-7.43-25.78-18.32-34.35-31.7-9.08-14.17-14.05-30.49-14.45-47.34-11.61,5.11-24.21,7.78-37.03,7.78-50.73,0-92-41.27-92-92,0-5.7.53-11.38,1.58-16.97-1.22-.02-2.42-.03-3.58-.03Z"/>
      <path class="cls-2" d="m329,791c-87.88,0-170.5-34.22-232.64-96.36C34.22,632.5,0,549.88,0,462c0-66.45,19.73-130.49,57.05-185.19,34.25-50.2,81.25-89.68,136.31-114.6C252.41,61.92,360.29,0,477,0c4.25,0,8.73.1,13.7.3l40.8,1.68-11.38,39.22c-1.4,4.83-2.11,9.81-2.11,14.8,0,29.22,23.78,53,53,53,9.83,0,19.42-2.72,27.74-7.85l55.98-34.57-7.37,65.38c-.24,2.1-.36,4.13-.36,6.04,0,20.22,11.78,38.97,30.01,47.77l15.04,7.26,2.65,16.49c4.14,25.77,26.14,44.48,52.31,44.48,4.92,0,9.83-.69,14.6-2.06l34.81-9.95,5.6,35.77c2.65,16.9,3.99,34.14,3.99,51.24,0,66.45-19.73,130.49-57.05,185.19-34.25,50.2-81.25,89.68-136.31,114.61-59.05,100.28-166.93,162.2-283.64,162.2ZM454.34,64.97c-88.26,7.54-167.46,58.83-210.31,137.63l-5.42,9.97-10.49,4.33c-99.69,41.09-164.11,137.3-164.11,245.1,0,146.12,118.88,265,265,265,97.21,0,186.48-53.11,232.97-138.6l5.43-9.97,10.49-4.32c99.69-41.09,164.11-137.3,164.11-245.11,0-3.69-.08-7.4-.23-11.12-26.11-1.17-51.15-11.06-71.01-28.15-16.73-14.39-29.1-33.38-35.58-54.33-13.45-8.97-24.99-20.69-33.75-34.36-5.85-9.12-10.36-18.98-13.46-29.27-5.58.81-11.25,1.22-16.97,1.22-61.5,0-112.07-47.69-116.66-108.03Z"/>
    </g>
    <path class="cls-4" d="m746.5,284.5c-42.32,0-77.4-30.93-83.91-71.41-28.46-13.74-48.09-42.87-48.09-76.59,0-3.26.2-6.47.56-9.63-12.95,8-28.21,12.63-44.56,12.63-46.94,0-85-38.06-85-85,0-8.24,1.19-16.19,3.38-23.72-4.11-.17-8.23-.28-12.38-.28-164.03,0-297,132.97-297,297s132.97,297,297,297,297-132.97,297-297c0-15.75-1.24-31.2-3.6-46.29-7.44,2.13-15.28,3.29-23.4,3.29Z"/>
    <path class="cls-1" d="m523.54,599.04c-163.01,18.29-309.97-99.03-328.26-262.04-6.95-61.94,5.7-121.55,32.97-172.67-35.91,55.54-53.6,123.36-45.65,194.22,18.29,163.01,165.25,280.32,328.26,262.04,101.07-11.34,184.56-72.16,229.07-155.59-46.7,72.23-124.24,123.7-216.39,134.04Z"/>
    <g>
      <g>
        <path class="cls-5" d="m407.34,127.58c-15.69-7.15-22.59,33.98-17.91,37.89s28.33.46,36.15-8.89c7.82-9.35-2.97-22.04-18.24-28.99Z"/>
        <path class="cls-2" d="m396.78,172.06c-3.99,0-8.02-.65-10.55-2.77-3.09-2.59-3.98-8.6-2.64-17.87.56-3.84,2.36-13.57,7.04-21.01,7.05-11.19,15.49-8.9,18.79-7.4h0c12.47,5.68,21.42,14.5,23.36,23,1.14,5-.02,9.76-3.36,13.75-5.98,7.15-17.43,10.15-22.08,11.11-2.35.49-6.44,1.18-10.56,1.18Zm-3.44-9.58h0Zm-.21-.73c4.88,1.37,22.81-1.45,28.61-8.4,1.33-1.59,1.72-3.17,1.28-5.12-1.22-5.36-8.35-11.84-17.75-16.12-1.11-.5-2.25-.81-4.1.97-6.16,5.93-9.04,23.63-8.04,28.66Zm-.67-.26"/>
      </g>
      <g>
        <path class="cls-5" d="m568.19,223.35c-5.94-20.09-49.18,6.34-49.04,13.75.14,7.41,22.16,26.37,36.97,26.09s17.86-20.28,12.07-39.84Z"/>
        <path class="cls-2" d="m555.79,268.19c-10.86,0-22.26-7.8-26.69-11.19-3.47-2.65-14.8-11.91-14.95-19.81-.19-9.86,24.42-23.72,38.27-25.86,15.03-2.33,19.39,6.63,20.57,10.59h0c4.63,15.66,3.74,30.54-2.33,38.82-3.48,4.75-8.47,7.32-14.44,7.43-.14,0-.28,0-.42,0Zm-31.54-30.76c1.66,5.3,19.74,20.94,31.77,20.76,2.85-.05,4.93-1.12,6.56-3.34,4.13-5.65,4.46-17.73.81-30.08h0c-.54-1.82-1.57-3.54-5.44-3.78-11.47-.69-30.8,11.7-33.7,16.45Zm-.22.42h0Z"/>
      </g>
      <g>
        <path class="cls-5" d="m438.74,257.38c-12.22-5.57-17.6,26.46-13.95,29.51,3.64,3.04,22.07.36,28.16-6.93,6.09-7.29-2.31-17.16-14.21-22.58Z"/>
        <path class="cls-2" d="m430.57,293.12c-3.35,0-6.78-.56-8.98-2.4-6.01-5.02-1.59-24.1,3.2-31.72,4.13-6.56,10.12-8.87,16.03-6.18h0c10.18,4.64,17.21,11.62,18.81,18.68.97,4.25-.02,8.28-2.84,11.66-4.88,5.83-14.09,8.26-17.82,9.03-1.87.39-5.09.93-8.39.93Zm-1.9-10.07c4.33.57,16.54-1.62,20.44-6.3.8-.96,1.03-1.87.77-3.03-.71-3.1-5.14-8.12-13.21-11.79h0c-.55-.25-.91-.41-1.84.42-4.34,3.91-6.56,16.17-6.16,20.7Z"/>
      </g>
      <g>
        <path class="cls-5" d="m592.08,388.16c-6.54-17.48-43.3,8.72-42.71,15.29.59,6.57,21.34,22.04,34.48,20.87,13.14-1.18,14.59-19.14,8.23-36.15Z"/>
        <path class="cls-2" d="m582.39,429.38c-9.38,0-19.25-5.79-23.24-8.41-3.3-2.17-14.11-9.82-14.76-17.07-.38-4.2,3.49-9.35,11.49-15.33,3.34-2.5,12.11-8.53,21.31-10.62,13.64-3.1,18.23,4.89,19.57,8.47,5.15,13.78,5.27,27.24.31,35.12-2.89,4.59-7.31,7.27-12.78,7.76-.63.06-1.27.08-1.91.08Zm-27.83-25.95c2.36,4.79,18.59,16.81,28.85,15.9,2.34-.21,4-1.2,5.21-3.13,3.23-5.14,2.75-15.7-1.21-26.29h0c-.61-1.63-1.55-2.64-4.37-2.67-.03,0-.06,0-.1,0-9.67,0-25.62,11.66-28.37,16.18Z"/>
      </g>
      <g>
        <path class="cls-5" d="m293.92,235.46c-15.69-7.15-22.59,33.98-17.91,37.89s28.33.46,36.15-8.89c7.82-9.35-2.97-22.04-18.24-28.99Z"/>
        <path class="cls-2" d="m283.81,279.92c-4.77,0-8.79-.87-11.02-2.74-3.09-2.59-3.98-8.6-2.64-17.87.56-3.84,2.36-13.57,7.04-21.01,7.05-11.19,15.49-8.9,18.79-7.4h0c12.47,5.68,21.42,14.5,23.36,23,1.14,5-.02,9.76-3.36,13.75-6.44,7.7-21.28,12.26-32.18,12.26Zm-3.9-9.55h0Zm-.21-.73c4.88,1.37,22.81-1.45,28.61-8.4,1.33-1.59,1.72-3.17,1.28-5.12-1.22-5.36-8.35-11.84-17.75-16.12h0c-1.11-.5-2.25-.81-4.1.97-6.16,5.93-9.04,23.63-8.04,28.66Zm-.67-.26"/>
      </g>
      <g>
        <path class="cls-5" d="m307.45,385.27c.43-19.02-44.29-8.15-46.22-1.7-1.93,6.44,11.85,28.95,24.74,32.81s21.06-12.59,21.48-31.11Z"/>
        <path class="cls-2" d="m289.69,421.95c-1.69,0-3.42-.26-5.16-.78-9.69-2.91-17.63-13.12-20.59-17.37-2.29-3.29-9.62-14.6-7.5-21.67,2.63-8.77,28.06-14.09,40.78-12.07,14.01,2.22,15.32,11.46,15.24,15.33-.34,14.97-5.31,27.72-12.97,33.29-2.99,2.17-6.31,3.28-9.79,3.28Zm-23.65-36.48c.39,5.33,11.49,23.16,21.36,26.12,2.33.7,4.3.38,6.2-1,5.03-3.66,8.59-13.87,8.85-25.43h0c.04-1.77-.49-3.18-3.22-4.28-9.21-3.74-28.93,1.34-33.19,4.59Zm-.47.41h0Z"/>
      </g>
      <g>
        <path class="cls-5" d="m455.64,428.56c23.1,2.01,13.38-53.21,5.69-56.07-7.68-2.85-36.12,12.14-41.83,27.51-5.71,15.37,13.66,26.6,36.14,28.56Z"/>
        <path class="cls-2" d="m456.86,433.62c-.54,0-1.09-.02-1.65-.07h0c-17.84-1.56-32.64-8.4-38.63-17.87-3.39-5.36-4-11.38-1.76-17.41,6.35-17.1,37.08-34.61,48.26-30.45,4.49,1.67,7.94,8.46,10.28,20.19,1,5.01,3.04,17.87.52,29.07-2.39,10.6-8.54,16.55-17.02,16.55Zm1.84-56.54c-6.55,0-29.8,11.98-34.51,24.66-1.14,3.08-.87,5.88.83,8.58,4.22,6.68,16.7,12,31.05,13.25h0c2.22.2,4.76-.2,6.73-4.6,5.42-12.12.19-37.4-3.59-41.87-.16-.02-.33-.03-.52-.03Zm.25-.25h0Z"/>
      </g>
      <g>
        <path class="cls-5" d="m358.69,506.77c-12.22-5.57-17.6,26.46-13.95,29.51s22.07.36,28.16-6.93c6.09-7.29-2.31-17.16-14.21-22.58Z"/>
        <path class="cls-2" d="m350.82,542.56c-3.91,0-7.26-.76-9.28-2.44-6.01-5.03-1.59-24.1,3.2-31.72,4.13-6.56,10.12-8.87,16.03-6.18h0c10.18,4.64,17.21,11.62,18.81,18.68.97,4.25-.02,8.28-2.84,11.66-4.98,5.96-16.9,10-25.92,10Zm-2.2-10.11c4.33.57,16.54-1.63,20.44-6.3.8-.96,1.03-1.87.77-3.03-.71-3.1-5.14-8.12-13.21-11.79-.55-.25-.91-.42-1.84.42-4.34,3.91-6.56,16.17-6.16,20.7Z"/>
      </g>
      <g>
        <path class="cls-5" d="m517.91,504.7c-8.61-11.25-29.51,15.91-27.63,20.55s20.37,11.28,29.65,7.52c9.28-3.76,6.36-17.13-2.02-28.07Z"/>
        <path class="cls-2" d="m513.28,538.87c-5.09,0-9.92-1.2-12.36-1.91-3.85-1.13-13.06-4.36-15.27-9.83-3.05-7.54,10.43-22.93,18.6-27.6,6.97-3.99,13.56-3.19,17.64,2.13h0c7.12,9.3,10.19,19.2,8.2,26.48-1.18,4.35-4.04,7.55-8.27,9.26-2.67,1.08-5.64,1.47-8.53,1.47Zm-17.82-15.17c3.6,2.74,16.4,6.94,22.6,4.43,1.31-.53,2.02-1.32,2.38-2.62,1.1-4.04-1.57-11.35-6.49-17.77-.47-.61-.85-.96-2.24-.61-6.04,1.55-14.48,12.26-16.24,16.57Zm-.31,1.01h0Zm-.42-1.69"/>
      </g>
      <g>
        <path class="cls-5" d="m654.66,311.87c-18.27-8.18-28.27,43.2-22.91,47.85s33.54-.69,43.22-12.65c9.68-11.97-2.54-27.24-20.31-35.2Z"/>
        <path class="cls-2" d="m639.11,366.39c-4.84,0-8.41-.97-10.63-2.89-1.25-1.08-5.07-4.39-2.09-21.34.83-4.75,3.4-16.79,9.21-25.9,8.23-12.92,17.5-10.57,21.1-8.96h0c13.97,6.25,23.73,15.94,26.12,25.91,1.46,6.11.09,11.98-3.96,16.99-7.67,9.48-23.97,14.94-35.87,16-1.38.12-2.67.18-3.89.18Zm-3.44-9.66h0Zm-.2-.65c5.48,1.78,27.93-2.66,35.62-12.16,2.08-2.58,2.74-5.31,2.01-8.37-1.62-6.77-9.66-14.27-20.48-19.11h0c-1.46-.65-3.16-.91-5.72,1.58-8.29,8.06-12.75,32.1-11.42,38.07Zm-.59-.25"/>
      </g>
    </g>
    <path class="cls-3" d="m329,780.5c-85.88,0-166.61-33.44-227.33-94.17S7.5,544.88,7.5,459s33.44-166.61,94.17-227.33,141.46-94.17,227.33-94.17,166.61,33.44,227.33,94.17,94.17,141.46,94.17,227.33-33.44,166.61-94.17,227.33-141.46,94.17-227.33,94.17Zm0-594c-150.26,0-272.5,122.24-272.5,272.5s122.24,272.5,272.5,272.5,272.5-122.24,272.5-272.5-122.24-272.5-272.5-272.5Z"/>
    <circle class="cls-6" cx="328.5" cy="460.5" r="297"/>
    <g>
      <g>
        <path class="cls-5" d="m199.87,283.65c-17.2,1.23-3.59,40.64,2.39,41.84,5.98,1.2,25.1-13.15,27.49-25.1,2.39-11.95-13.15-17.93-29.88-16.74Z"/>
        <path class="cls-2" d="m202.83,330.54c-.54,0-1.06-.05-1.55-.14-3.96-.79-7.61-5.65-10.86-14.43-1.35-3.64-4.42-13.05-3.87-21.81.83-13.2,9.35-15.23,12.97-15.48h0c13.67-.98,25.75,2.48,31.52,9.03,3.39,3.85,4.65,8.58,3.63,13.68-2.68,13.41-21.87,29.17-31.83,29.17Zm-2.6-41.9c-1.21.09-2.36.37-3.14,2.81-2.57,8.15,3.37,25.08,6.65,29.01,4.94-1.14,19.34-12.19,21.11-21.06.41-2.03,0-3.6-1.32-5.1-3.63-4.12-13-6.4-23.3-5.66h0Z"/>
      </g>
      <g>
        <path class="cls-5" d="m389.71,267.13c-17.67-17.64-47.84,34.66-43.47,42.33,4.37,7.67,38.21,14.96,53.55,6.23s7.12-31.4-10.07-48.56Z"/>
        <path class="cls-2" d="m380.76,324.66c-5.23,0-9.83-.55-12.63-.99-5.03-.78-21.79-3.93-26.24-11.73-3.09-5.42,1.28-15.71,5.48-23.39,2.63-4.8,9.8-16.78,19.57-24.23,9.73-7.43,19.32-7.69,26.3-.72h0c13.56,13.54,21,29.3,19.41,41.14-.89,6.65-4.49,11.94-10.4,15.3-6.36,3.62-14.49,4.62-21.49,4.62Zm-29.98-17.39c3.94,4.62,33.4,11.54,46.52,4.08,3.18-1.81,4.96-4.41,5.44-7.94,1.15-8.54-5.51-21.7-16.57-32.74-1.83-1.82-4.37-3.35-9.36-.84-12.8,6.42-26.26,31.49-26.03,37.44Zm.03.32h0Z"/>
      </g>
      <g>
        <path class="cls-5" d="m289.53,382.62c-13.39.96-2.79,31.66,1.86,32.59s19.55-10.24,21.41-19.55c1.86-9.31-10.24-13.97-23.28-13.03Z"/>
        <path class="cls-2" d="m291.94,420.25c-.52,0-1.03-.05-1.52-.15-7.68-1.54-12.93-20.4-12.36-29.38.49-7.74,4.65-12.63,11.12-13.09,11.15-.8,20.67,1.97,25.46,7.4,2.88,3.27,3.94,7.28,3.08,11.6-1.49,7.46-8.42,13.99-11.33,16.45-2.68,2.26-9.09,7.17-14.44,7.17Zm1.75-9.38h0Zm-3.8-23.27c-.6.04-1,.07-1.41,1.25-1.94,5.51,1.97,17.34,4.49,21.13,4.07-1.57,13.74-9.34,14.94-15.31.25-1.23.01-2.13-.78-3.03-2.1-2.39-8.4-4.67-17.24-4.04h0Z"/>
      </g>
      <g>
        <path class="cls-5" d="m486.75,424.12c-14.1-12.22-33.85,28.36-30.19,33.85,3.66,5.49,29.28,9.15,40.26,1.83,10.98-7.32,3.66-23.79-10.06-35.68Z"/>
        <path class="cls-2" d="m478.88,468.9c-2.17,0-4.02-.11-5.36-.22-3.94-.33-17.09-1.87-21.13-7.93-2.34-3.51-1.41-9.88,2.76-18.96,1.74-3.79,6.56-13.29,13.63-19.52,10.5-9.25,18.35-4.43,21.24-1.93h0c11.12,9.64,17.66,21.4,17.07,30.7-.34,5.41-2.94,9.88-7.51,12.93-6.11,4.07-14.62,4.93-20.71,4.93Zm-17.78-13.42c4.37,3.08,24.38,5.87,32.94.17,1.96-1.3,2.93-2.97,3.08-5.24.38-6.06-5.1-15.1-13.64-22.51-1.31-1.14-2.63-1.58-5.12-.25-8.52,4.55-17,22.53-17.26,27.83Zm.02.65h0Z"/>
      </g>
      <g>
        <path class="cls-5" d="m148.69,432.67c-19.01,1.36-3.96,44.94,2.64,46.26s27.75-14.54,30.4-27.75c2.64-13.22-14.54-19.82-33.04-18.5Z"/>
        <path class="cls-2" d="m152.12,483.99c-.61,0-1.2-.05-1.77-.17-8.99-1.8-16.68-26.66-15.87-39.52.9-14.18,9.98-16.35,13.85-16.62h0c14.96-1.06,28.14,2.69,34.41,9.8,3.64,4.13,4.98,9.2,3.89,14.67-1.99,9.94-11.42,18.81-15.38,22.17-2.83,2.39-12.03,9.68-19.13,9.68Zm1.11-9.62h0,0Zm.05-36.88c-1.39,0-2.8.05-4.23.15h0c-1.77.13-3.13.79-3.98,3.62-2.87,9.55,4.06,28.74,7.7,32.68,5.27-.88,22.03-13.63,24.06-23.76.48-2.39-.03-4.33-1.59-6.1-3.61-4.1-12.14-6.59-21.96-6.59Z"/>
      </g>
      <g>
        <path class="cls-5" d="m235.42,557.73c-8.72-16.91-42.79,14.03-41.41,20.61,1.39,6.58,24.25,19.75,37.42,16.98s12.47-21.14,3.99-37.59Z"/>
        <path class="cls-2" d="m227.53,600.7c-8.63,0-17.58-3.94-21.47-5.89-3.59-1.8-15.43-8.22-16.95-15.44-1.89-8.96,17.9-25.79,30.03-30.11,13.37-4.75,18.94,2.73,20.71,6.17h0c6.86,13.31,8.6,26.89,4.54,35.44-2.36,4.96-6.49,8.19-11.94,9.34-1.6.34-3.26.49-4.93.49Zm-28.39-22.99c2.89,4.49,21.17,14.84,31.25,12.72,2.38-.5,3.96-1.72,4.96-3.85,2.67-5.62.9-16.29-4.39-26.56h0c-.81-1.57-1.95-2.55-4.88-2.22-9.88,1.12-24.77,15.01-26.95,19.91Z"/>
      </g>
      <g>
        <path class="cls-5" d="m398.35,534.07c30.22-13.2-19.49-75.56-31.03-73.89-11.54,1.66-36.86,39.74-33.53,62.81,3.32,23.08,35.16,23.93,64.56,11.08Z"/>
        <path class="cls-2" d="m362.78,547.36c-8.15,0-15.35-1.54-20.96-4.66-7.28-4.05-11.77-10.63-12.98-19-2.34-16.21,7.49-35.24,11.82-42.67,6.79-11.65,17.18-24.54,25.94-25.81,12.59-1.79,38.52,31.09,44.67,52.66,5.73,20.12-4.38,27.91-10.92,30.77l-2-4.58,2,4.58c-13.2,5.77-26.3,8.71-37.58,8.71Zm5.06-82.2c-3.13.71-11.12,8.19-18.54,20.91-7.92,13.58-11.87,27.12-10.56,36.2.77,5.32,3.36,9.14,7.94,11.69,10.52,5.86,30.02,4.1,49.67-4.48,3.38-1.47,7.71-4.54,6.35-14.08-1.27-8.91-7.35-21.15-16.28-32.75-8.94-11.61-16.38-17.04-18.58-17.5Zm-.13-.02h0Z"/>
      </g>
      <g>
        <path class="cls-5" d="m338.53,639.92c-13.39.96-2.79,31.66,1.86,32.59s19.55-10.24,21.41-19.55c1.86-9.31-10.24-13.97-23.28-13.03Z"/>
        <path class="cls-2" d="m340.94,677.55c-.52,0-1.03-.05-1.52-.15-7.68-1.54-12.93-20.4-12.36-29.38.49-7.74,4.65-12.63,11.12-13.1,11.15-.8,20.67,1.97,25.46,7.4,2.88,3.27,3.95,7.28,3.08,11.6-1.49,7.46-8.42,13.99-11.33,16.45-2.68,2.26-9.09,7.17-14.44,7.17Zm1.75-9.38h0Zm-1.75-.62h0Zm.9-22.76c-.95,0-1.93.03-2.94.11h0c-.6.04-1,.07-1.41,1.25-1.94,5.51,1.97,17.34,4.49,21.13,4.07-1.57,13.74-9.34,14.94-15.31.25-1.23.01-2.13-.78-3.03-1.86-2.11-7.01-4.14-14.3-4.14Z"/>
      </g>
      <g>
        <path class="cls-5" d="m477.36,561.94c-12.94-5.76-18.31,28.09-14.44,31.26s23.28.17,29.64-7.58c6.35-7.74-2.61-18.08-15.2-23.68Z"/>
        <path class="cls-2" d="m468.79,599.45c-3.38,0-6.81-.56-9.03-2.39-6.29-5.16-1.81-25.12,3.13-33.13,4.22-6.83,10.38-9.29,16.51-6.56,10.7,4.76,18.13,11.98,19.87,19.33,1.04,4.38.06,8.57-2.83,12.09-5.03,6.13-14.66,8.76-18.56,9.6-2.01.43-5.53,1.06-9.08,1.06Zm-2.05-10.08c4.47.68,17.72-1.75,21.96-6.92.9-1.09,1.15-2.12.83-3.44-.96-4.07-6.81-9.21-14.2-12.5h0c-.71-.31-1.21-.43-2.26.54-4.56,4.24-6.85,17.7-6.33,22.32Z"/>
      </g>
      <g>
        <path class="cls-5" d="m502.35,327.13c-14.07,1.1-2.93,36.29,1.96,37.36,4.89,1.07,20.54-11.74,22.5-22.42,1.96-10.67-10.76-16.01-24.45-14.94Z"/>
        <path class="cls-2" d="m504.93,369.56c-.59,0-1.15-.06-1.7-.18-1.49-.32-5.43-1.19-9.57-13.48-1.11-3.31-3.65-11.85-3.11-19.72.82-11.93,8.25-13.79,11.4-14.03,11.22-.88,20.98,2.01,26.12,7.72,3.28,3.64,4.54,8.17,3.63,13.11-1.63,8.88-10.19,18.13-17.45,22.97-3.64,2.42-6.71,3.61-9.34,3.61Zm.79-37.56c-.98,0-1.98.04-2.99.12h0c-.55.04-1.08.08-1.62,1.57-2.35,6.52,2.02,21.09,4.82,25.55,4.38-1.84,14.62-10.88,15.94-18.06.34-1.87-.04-3.29-1.23-4.61-2.56-2.84-8.35-4.56-14.93-4.56Z"/>
      </g>
    </g>
    <path class="cls-1" d="m342,737c-164.03,0-297-132.97-297-297,0-62.32,19.21-120.15,52.02-167.92-41.88,51.19-67.02,116.62-67.02,187.92,0,164.03,132.97,297,297,297,101.7,0,191.45-51.13,244.98-129.08-54.47,66.58-137.26,109.08-229.98,109.08Z"/>
  </g>
</svg>