<?xml version="1.0" encoding="UTF-8"?>
<svg id="Calque_1" data-name="Calque 1" xmlns="http://www.w3.org/2000/svg" viewBox="0 0 671.27 826.7">
  <defs>
    <style>
      .cls-1 {
        fill: #f6b058;
      }

      .cls-2 {
        fill: #492109;
      }

      .cls-3 {
        fill: #6d3a1f;
      }

      .cls-4 {
        fill: #4c2a1b;
      }

      .cls-5 {
        fill: #df7a4c;
      }

      .cls-6 {
        fill: #d9f4ff;
      }
    </style>
  </defs>
  <path class="cls-2" d="m342.94,30c93.8,0,181.39,10.63,181.39,35.18,0,.46-.15.9-.41,1.34,1.54,17.36-3.38,88.39-12.04,94.99-10.4,13.23-123.31,23.76-222.6,23.76-67.3,0-128.36-4.84-146.95-16.96-7.59-6.64-25.07-86.15-23.44-99.43-.36-.51-.56-1.03-.56-1.57,0-23.19,116.43-37.31,224.6-37.31m0-30c-56.61,0-113.95,3.75-157.34,10.3-24.16,3.64-43.55,8.09-57.64,13.21-9.43,3.43-16.85,7.27-22.68,11.74-14.75,11.32-16.95,24.94-16.95,32.06,0,1.89.16,3.76.49,5.6.14,4.58.76,11.08,2.37,20.97,1.61,9.94,4,21.98,6.72,33.89,2.01,8.79,5.15,21.64,8.69,33,5.11,16.38,9.29,24.26,15.98,30.12l1.59,1.39,1.77,1.16c13.34,8.7,34.45,14.17,68.46,17.73,25.59,2.68,58.39,4.1,94.87,4.1,49.87,0,103.7-2.58,147.68-7.07,22.71-2.32,41.5-5.02,55.86-8.03,21.03-4.4,32.83-9.47,40.49-17.62,8.06-7.94,11.36-19.06,13.67-30.04,1.77-8.41,3.31-18.97,4.58-31.41,1.66-16.27,3.03-38.24,2.53-52.12.15-1.26.23-2.53.23-3.8,0-10.5-4.24-30.07-32.62-43.11-11.88-5.46-27.53-9.8-47.86-13.26C431.1,1.53,379.06,0,342.94,0h0Z"/>
  <g>
    <path class="cls-6" d="m342.67,811.7c-41.65,0-81.64-3.12-112.63-8.78-40.54-7.41-65.32-18.79-75.75-34.8l-.91-1.4-.19-.51c-1.07-1.61-3.85-5.37-6.54-9.01-24.32-32.91-88.91-120.32-117.76-231.09-16.5-63.36-18.31-124.03-5.38-180.32,15.72-68.39,53.33-130.82,111.8-185.55l6.62-6.2,8.57,2.99c23.21,8.1,78,12.94,146.55,12.94,85.23,0,170.43-7.47,207.17-18.16l8.09-2.35,6.22,5.68c93.39,85.33,139.71,183.17,137.66,290.8-1.31,68.59-23.2,141.43-63.3,210.66-29.71,51.27-70.23,101.17-108.4,133.46-5.58,4.72-17.41,11.59-55.53,16.64-24.38,3.23-55.03,5.01-86.3,5.01Z"/>
    <path class="cls-2" d="m508.43,166.21c267.49,244.39,64.49,529.39-33.62,612.39-13.14,11.12-70.31,18.1-132.14,18.1-75.85,0-158.7-10.51-175.8-36.76-4.95-13.34-290.95-336.34-21.3-588.75,27.15,9.47,86.91,13.77,151.5,13.77,81.37,0,170.38-6.83,211.36-18.75m7.8-33.51l-16.18,4.71c-35.54,10.34-119,17.56-202.98,17.56-78.85,0-124.85-6.25-141.61-12.1l-17.14-5.98-13.25,12.4c-60.69,56.81-99.78,121.79-116.17,193.15-13.48,58.67-11.64,121.74,5.48,187.46,12.69,48.7,33.77,98.92,62.65,149.26,23.32,40.64,45.6,70.78,57.56,86.97,1.88,2.55,3.95,5.34,5.2,7.1l.11.29,1.83,2.8c12.97,19.92,40.18,33.06,85.62,41.36,31.84,5.82,72.8,9.02,115.32,9.02,31.9,0,63.25-1.82,88.27-5.14,41.56-5.5,55.63-13.61,63.25-20.06,17.92-15.16,36.98-34.68,55.12-56.45,21.05-25.26,40.08-52.49,56.57-80.94,19.2-33.13,34.44-67.16,45.31-101.15,12.55-39.22,19.28-78.5,20.01-116.74,1-52.6-9.32-103.71-30.67-151.92-23.71-53.53-61.35-104.08-111.87-150.24l-12.44-11.36h0Z"/>
  </g>
  <g>
    <path class="cls-1" d="m118.92,302.6c-121,134,68,391,80,406,33,42,235,25,256,10,19-12,221-239,86-416-75,30-287,51-422,0Z"/>
    <g>
      <g>
        <path class="cls-3" d="m186.3,507.85c-6.54-17.48-43.3,8.72-42.71,15.29.59,6.57,21.34,22.04,34.48,20.87,13.14-1.18,14.59-19.14,8.23-36.15Z"/>
        <path class="cls-2" d="m176.61,549.06c-9.38,0-19.25-5.79-23.24-8.41-3.3-2.17-14.11-9.82-14.76-17.07-.38-4.2,3.49-9.35,11.49-15.33,3.34-2.5,12.11-8.53,21.31-10.62,13.64-3.1,18.23,4.89,19.57,8.47,5.15,13.78,5.27,27.24.31,35.12-2.89,4.59-7.31,7.27-12.78,7.76-.63.06-1.27.08-1.91.08Zm-27.83-26.28c2.36,4.79,18.59,16.81,28.85,15.9,2.34-.21,4-1.2,5.21-3.13,3.23-5.14,2.75-15.7-1.21-26.29h0c-.61-1.63-1.55-2.64-4.37-2.67-.03,0-.06,0-.1,0-9.67,0-25.62,11.66-28.37,16.18Z"/>
      </g>
      <g>
        <path class="cls-3" d="m126.14,366.15c-15.69-7.15-22.59,33.98-17.91,37.89s28.33.46,36.15-8.89c7.82-9.35-2.97-22.04-18.24-28.99Z"/>
        <path class="cls-2" d="m116.03,410.6c-4.77,0-8.79-.87-11.02-2.74-3.09-2.59-3.98-8.6-2.64-17.87.56-3.84,2.36-13.57,7.04-21.01,7.05-11.19,15.49-8.9,18.79-7.4h0c12.47,5.68,21.42,14.5,23.36,23,1.14,5-.02,9.76-3.36,13.75-6.44,7.7-21.28,12.26-32.18,12.26Zm-3.9-9.55h0Zm-.21-.73c4.88,1.37,22.81-1.45,28.61-8.4,1.33-1.59,1.72-3.17,1.28-5.12-1.22-5.36-8.35-11.84-17.75-16.12h0c-1.11-.5-2.25-.81-4.1.97-6.16,5.93-9.04,23.63-8.04,28.66Zm-.67-.26"/>
      </g>
      <g>
        <path class="cls-3" d="m279.68,379.95c.43-19.02-44.29-8.15-46.22-1.7-1.93,6.44,11.85,28.95,24.74,32.81s21.06-12.59,21.48-31.11Z"/>
        <path class="cls-2" d="m261.92,416.63c-1.69,0-3.42-.26-5.16-.78-9.69-2.91-17.63-13.12-20.59-17.37-2.29-3.29-9.62-14.6-7.5-21.67,2.63-8.77,28.06-14.09,40.78-12.07,14.01,2.22,15.32,11.46,15.24,15.33-.34,14.97-5.31,27.72-12.97,33.29-2.99,2.17-6.31,3.28-9.79,3.28Zm-23.65-36.48c.39,5.33,11.49,23.16,21.36,26.12,2.33.7,4.3.38,6.2-1,5.03-3.66,8.59-13.87,8.85-25.43h0c.04-1.77-.49-3.18-3.22-4.28-9.21-3.74-28.93,1.34-33.19,4.59Zm-.47.41h0Z"/>
      </g>
      <g>
        <path class="cls-3" d="m219.01,675.03c-3.88,16.8,37.8,15.37,40.7,10s-5.2-27.86-15.92-33.65c-10.72-5.8-21,7.3-24.78,23.65Z"/>
        <path class="cls-2" d="m264.69,685.98c-.16.52-.36,1-.59,1.44-1.92,3.55-7.63,5.62-16.98,6.15-3.87.22-13.77.4-21.99-2.71-12.37-4.67-11.81-13.41-10.99-16.94h0c3.08-13.36,9.94-23.88,17.88-27.47,4.68-2.11,9.57-1.92,14.14.55,12.03,6.5,21.46,29.47,18.53,39Zm-40.81-9.82c-.27,1.18-.34,2.37,1.77,3.83,7.04,4.86,24.96,4.15,29.69,2.16.37-5.06-5.97-22.06-13.93-26.37-1.82-.98-3.45-1.06-5.27-.23-5.01,2.26-9.94,10.54-12.26,20.61h0Z"/>
      </g>
      <g>
        <path class="cls-3" d="m473.97,366.72c-22.05,11.71,19.08,55.91,27.7,53.99,8.61-1.92,25.53-32.13,21.68-49.36-3.84-17.23-27.92-16.03-49.38-4.63Z"/>
        <path class="cls-2" d="m526.34,392.16c-1.54,5-3.42,9.24-4.66,11.79-2.22,4.58-10.15,19.68-18.92,21.64-6.09,1.36-14.65-5.83-20.75-12.11-3.82-3.92-13.16-14.29-17.42-25.83-4.24-11.48-1.68-20.72,7.04-25.35h0c16.93-8.99,34.18-11.47,45.03-6.47,6.09,2.81,10.09,7.8,11.57,14.43,1.59,7.15.16,15.2-1.9,21.9Zm-25.43,23.55c5.57-2.41,20.85-28.54,17.56-43.27-.8-3.57-2.76-6.04-6-7.53-7.83-3.61-22.36-1.11-36.16,6.22-2.28,1.21-4.48,3.19-3.55,8.7,2.38,14.13,22.38,34.35,28.14,35.87Zm.31.07h0Z"/>
      </g>
      <g>
        <path class="cls-3" d="m289.94,595.39c-3.02,13.08,29.44,11.97,31.7,7.79s-4.05-21.7-12.4-26.21c-8.35-4.51-16.36,5.69-19.3,18.42Z"/>
        <path class="cls-2" d="m326.62,604.15c-.15.5-.35.97-.59,1.41-3.73,6.89-23.3,6.37-31.72,3.19-7.25-2.74-10.71-8.15-9.25-14.48,2.51-10.89,7.95-19.18,14.55-22.16,3.97-1.79,8.12-1.63,11.99.46,6.69,3.62,10.9,12.16,12.4,15.67,1.38,3.22,4.18,10.79,2.61,15.91Zm-8.45-4.43h0Zm-23.36-3.21c-.14.59-.22.97.78,1.72,4.7,3.47,17.15,3.21,21.51,1.91-.3-4.36-4.89-15.88-10.25-18.78-1.1-.59-2.03-.64-3.12-.15-2.9,1.31-6.93,6.66-8.92,15.29h0Z"/>
      </g>
      <g>
        <path class="cls-3" d="m421.44,616.56c-18.73,3.37.84,45.03,7.54,45.63s26-17.38,27.22-30.78c1.22-13.4-16.54-18.13-34.76-14.85Z"/>
        <path class="cls-2" d="m460.2,636.71c-2.53,8.25-8.93,15.65-11.93,18.79-2.77,2.91-12.39,12.33-19.74,11.67-9.12-.83-19.4-24.69-19.96-37.55-.62-14.17,8.17-17.3,11.98-17.98h0c14.74-2.65,28.23-.32,35.21,6.07,4.05,3.71,5.93,8.61,5.42,14.15-.15,1.63-.49,3.26-.98,4.85Zm-30.32,20.38c5.14-1.45,20.4-15.87,21.34-26.14.22-2.42-.48-4.29-2.22-5.88-4.59-4.2-15.31-5.65-26.68-3.6h0c-1.74.31-3.01,1.12-3.56,4.01-1.83,9.77,7.07,28.08,11.12,31.61Z"/>
      </g>
      <g>
        <path class="cls-3" d="m422.68,453.86c-3.74-32.76-77.95-3.56-79.75,7.96-1.8,11.52,27.16,46.9,50.19,50.5s33.2-26.58,29.56-58.46Z"/>
        <path class="cls-2" d="m424.94,491.77c-2.39,7.79-5.98,14.22-10.61,18.66-6.02,5.77-13.61,8.13-21.98,6.82-16.18-2.53-31.49-17.51-37.31-23.83-9.14-9.92-18.41-23.63-17.05-32.38,1.99-12.56,41.03-27.69,63.46-27.23,20.91.43,25.39,12.39,26.2,19.48l-4.97.57,4.97-.57c1.63,14.31.6,27.7-2.71,38.48Zm-77.09-28.98c-.24,3.2,4.56,13.03,14.54,23.86,10.66,11.56,22.43,19.31,31.5,20.73,5.31.83,9.73-.53,13.51-4.16,8.69-8.34,12.74-27.49,10.31-48.79-.42-3.66-2.07-8.7-11.6-10.2-8.89-1.4-22.38.82-36.09,5.94-13.72,5.13-21.1,10.65-22.18,12.62Zm-.06.12h0Z"/>
      </g>
      <g>
        <path class="cls-3" d="m508.52,517.52c-9.3,10.68,21.47,25.75,25.64,22.98s7-22.21,1.46-30.56c-5.54-8.35-18.05-2.82-27.1,7.58Z"/>
        <path class="cls-2" d="m541.87,536.74c-.99,3.23-2.54,6.34-4.93,7.93-6.78,4.5-24.55-5.65-30.75-12.72-5.29-6.04-5.83-12.65-1.42-17.71,7.69-8.83,16.78-13.81,24.32-13.32,4.5.29,8.21,2.46,10.73,6.26,4.39,6.61,4.07,16.58,3.72,20.56-.18,2.05-.61,5.59-1.66,9Zm-10.24-1c1.96-4.08,3.53-17.45-.16-23.02-.78-1.18-1.69-1.72-3.05-1.81-4.18-.27-10.81,3.8-16.12,9.9h0c-.51.59-.77,1.03-.15,2.32,2.72,5.61,14.9,11.75,19.48,12.61Z"/>
      </g>
    </g>
    <path class="cls-5" d="m447.92,706.6c-47,24-173,26-249.32,2.39,33,42,235,25,256,10,19-12,221-239,86-416,100.32,186.61-44.68,364.61-92.68,403.61Z"/>
  </g>
  <path class="cls-4" d="m118.92,66.6c-4,6,15,94,23,101,46,30,353.1,15.4,370.55-6.8,9.45-7.2,14.45-91.2,11.45-98.33-36,26.13-378,29.13-405,4.13Z"/>
  <path class="cls-3" d="m117.92,66.6c0,25,407,23,407-2.13,0-52.87-407-41.16-407,2.13Z"/>
</svg>