<svg width="52" height="52" viewBox="0 0 52 52" fill="none" xmlns="http://www.w3.org/2000/svg">
<path d="M26.3498 51.2231C40.3968 51.2231 51.7842 39.8453 51.7842 25.8099C51.7842 11.7746 40.3968 0.396698 26.3498 0.396698C12.3027 0.396698 0.915283 11.7746 0.915283 25.8099C0.915283 39.8453 12.3027 51.2231 26.3498 51.2231Z" fill="url(#paint0_linear_183_45)"/>
<path d="M20.7573 25.2417C19.9463 25.2417 19.6514 26.0414 19.6514 26.536C19.6514 27.0306 19.4513 27.5357 19.1459 28.0303C18.8405 28.5249 19.0406 29.2299 18.4402 30.2296C17.8399 31.2293 16.1232 32.7236 16.9237 33.6181C17.7241 34.5125 18.8405 35.9121 19.4408 36.0173C20.0411 36.112 21.7578 35.6174 23.2744 35.8174C24.791 36.0173 25.286 37.2169 25.9916 37.8168C26.6972 38.4166 26.8973 39.2163 27.0027 40.1108C27.108 41.0053 27.7083 41.4051 27.4029 42.6995C27.0974 43.9938 27.5082 44.099 27.5082 45.4881C27.5082 46.8877 28.2138 46.4878 28.7194 47.7821C29.2249 49.0765 29.2249 50.2761 29.6251 50.676C30.0253 51.0758 30.3307 50.3813 30.8363 50.0761C31.3418 49.7815 31.5419 48.9817 32.1422 48.2767C32.7425 47.5822 33.048 47.7821 33.9537 46.3825C34.8594 44.983 35.9653 43.2888 36.0706 42.2891C36.1759 41.2894 36.6709 37.0065 37.0817 36.2067C37.4819 35.407 37.2818 35.207 37.2818 33.3129C37.2818 31.6187 40.4624 28.6512 39.3987 28.7248C36.2707 28.9248 35.1649 30.2191 33.5535 27.2305C33.1533 26.4834 32.2475 25.0312 31.4366 25.0312C30.6256 25.0312 29.3197 25.0312 28.614 25.4311C27.9084 25.831 27.0974 25.1365 26.3918 24.9365C25.6862 24.7366 24.9805 23.9368 24.0748 24.242C23.1691 24.5472 21.663 25.2417 20.7573 25.2417Z" fill="#74EDAB"/>
<path d="M13.8801 18.6227C13.3535 19.0541 12.7531 20.5379 13.0059 20.8851C13.2692 21.2324 13.7853 22.19 14.3119 22.19C14.8385 22.19 16.829 22.19 17.2713 21.5796C17.7137 20.9693 18.314 20.5379 18.6615 20.359C19.0091 20.1801 19.7884 19.1383 20.3993 19.1383C21.0101 19.1383 21.621 18.791 22.137 18.9594C22.6636 19.1383 23.8748 19.0436 23.9591 19.3908C24.0433 19.7381 24.4857 20.1696 24.4857 20.6115C24.4857 21.043 25.0965 21.8322 24.749 22.432C24.4014 23.0424 24.8332 23.3896 24.8332 23.3896C24.8332 23.3896 25.7074 22.6109 25.8759 22.3478C26.0444 22.0848 26.75 22.3478 26.75 22.3478C26.75 22.3478 25.1808 20.3484 25.2755 19.6539C25.3598 18.9594 24.1486 17.2231 24.6647 17.2231C25.1808 17.2231 25.7074 17.1389 26.4025 17.3073C27.0976 17.4756 28.2245 17.5704 28.3193 18.0018C28.4035 18.4332 28.2771 17.8124 28.4035 18.4332C28.6247 19.5276 27.7505 19.2751 28.6247 19.5276C29.4988 19.7907 29.7095 20.3379 30.1413 20.5168C30.5731 20.6957 31.4472 21.8217 32.5741 21.2113C33.701 20.601 34.4909 20.0854 34.7437 19.6434C35.007 19.212 36.2182 22.5057 36.5657 23.2002C36.9133 23.8947 37.1766 24.4209 37.8717 25.1154C38.5668 25.8099 39.7885 25.7257 40.3045 25.4627C40.8206 25.1996 41.779 24.0736 42.1265 23.2949C42.4741 22.5162 51.8475 25.2101 51.7843 24.4735C50.6258 10.2673 40.473 4.62697 40.473 4.62697C40.473 4.62697 36.0391 4.80586 35.344 5.05842C34.6489 5.32149 31.0891 3.32211 30.215 3.75356C29.3409 4.185 25.8653 2.36451 24.1276 3.05903C22.3898 3.75356 18.83 3.84826 18.6089 4.58488C18.3877 5.32149 17.2608 6.01602 17.4398 6.79472C17.6189 7.57343 15.7863 10.9619 16.2181 11.2249C16.6499 11.488 18.1349 10.7935 18.651 10.2673C19.1776 9.74118 20.3045 7.65762 20.9153 7.48925C21.5262 7.31036 22.8321 6.01602 23.264 6.18439C23.6958 6.36328 22.5689 7.48925 22.5689 8.00488C22.5689 8.53103 23.3482 9.57282 23.443 9.92008C23.5273 10.2673 24.5699 10.4462 25.3598 9.74118C26.1392 9.04666 26.5815 8.43632 27.5294 8.43632C28.4878 8.43632 29.2671 8.78359 29.4462 9.39392C29.6252 10.0043 31.9633 9.39392 32.3108 10.0043C32.6584 10.6146 33.9643 11.4775 33.0902 12.0036C32.2161 12.5298 31.3524 12.5298 29.878 12.614C28.4035 12.6982 27.7927 11.2249 26.8343 11.3933C25.8759 11.5617 25.1808 11.7406 24.6647 12.3509C24.1486 12.9612 22.9269 13.9188 22.4951 13.4769C22.0633 13.0454 21.8843 12.4351 21.0207 13.1296C20.1465 13.8241 19.5462 14.2556 19.1039 14.1714C18.6615 14.0872 17.3661 14.4345 17.3661 14.8659C17.3661 15.2974 17.7979 15.4763 18.0612 15.9077C18.3245 16.3392 18.6721 17.2126 18.4088 17.2968C18.1455 17.3809 18.8406 18.3385 18.3245 18.3385C17.7979 18.3385 16.5867 17.5598 16.3235 17.4651C16.0602 17.4125 13.8801 18.6227 13.8801 18.6227Z" fill="#74EDAB"/>
<path d="M11.6472 4.71117C12.1317 4.29025 12.5003 6.39487 12.079 6.60533C11.6578 6.81579 10.3939 7.5524 10.3939 8.18379C10.3939 8.81517 10.2886 10.0779 9.34076 10.3936C8.39289 10.7093 8.07694 11.8669 7.8663 12.9192C7.65566 13.9715 6.28652 13.9715 5.44397 14.7081C4.60142 15.4447 3.09536 15.6762 2.74781 16.6128C2.38972 17.5493 1.07324 21.7059 1.31547 22.211C1.5577 22.7162 1.24174 23.9684 1.76834 24.4946C2.29493 25.0207 2.50557 26.073 3.03216 26.7044C3.55876 27.3358 4.29599 27.7567 4.71726 28.809C5.13854 29.8613 4.9279 32.1764 5.34918 32.8078C5.77045 33.4392 5.24386 35.7542 5.4545 36.7013C5.66513 37.6484 6.28652 40.3739 6.33918 40.8579C6.40237 41.3315 7.20279 42.7205 7.20279 42.7205C7.20279 42.7205 -9.64821 23.2213 11.6472 4.71117Z" fill="#74EDAB"/>
<path opacity="0.12" d="M31.8264 45.8564C17.7769 45.8564 6.39191 34.4809 6.39191 20.4432C6.39191 14.8764 8.19286 9.72014 11.226 5.53195C5.08596 10.1726 1.12598 17.5283 1.12598 25.8099C1.12598 39.8477 12.5109 51.2231 26.5605 51.2231C35.0281 51.2231 42.5373 47.0876 47.1608 40.7211C42.8954 43.9412 37.5873 45.8564 31.8264 45.8564Z" fill="black"/>
<defs>
<linearGradient id="paint0_linear_183_45" x1="11.0454" y1="44.0505" x2="42.737" y2="6.21617" gradientUnits="userSpaceOnUse">
<stop stop-color="#10A3B2"/>
<stop offset="1" stop-color="#27CEE0"/>
</linearGradient>
</defs>
</svg>
